v  9.00  5.00 -5.50
v  9.00  5.00 -5.00
v  9.00  5.00 -4.50
v  9.00  5.00 -4.00
v  9.00  5.00 -3.50
v  9.00  5.00 -3.00
v  9.00  5.00 -2.50
v  9.00  5.00 -2.00
v  9.00  5.00 -1.50
v  9.00  5.00 -1.00
v  9.00  5.00 -0.50
v  9.00  5.00  0.00
v  9.00  5.00  0.50
v  9.00  5.00  1.00
v  9.00  5.00  1.50
v  9.00  5.00  2.00
v  9.00  5.00  2.50
v  9.00  5.00  3.00
v  9.00  5.00  3.50
v  9.00  5.00  4.00
v  9.00  5.00  4.50
v  9.00  5.00  5.00
v  9.00  5.00  5.50
v  9.00  4.50 -5.50
v  9.00  4.50 -5.00
v  9.00  4.50 -4.50
v  9.00  4.50 -4.00
v  9.00  4.50 -3.50
v  9.00  4.50 -3.00
v  9.00  4.50 -2.50
v  9.00  4.50 -2.00
v  9.00  4.50 -1.50
v  9.00  4.50 -1.00
v  9.00  4.50 -0.50
v  9.00  4.50  0.00
v  9.00  4.50  0.50
v  9.00  4.50  1.00
v  9.00  4.50  1.50
v  9.00  4.50  2.00
v  9.00  4.50  2.50
v  9.00  4.50  3.00
v  9.00  4.50  3.50
v  9.00  4.50  4.00
v  9.00  4.50  4.50
v  9.00  4.50  5.00
v  9.00  4.50  5.50
v  9.00  4.00 -5.50
v  9.00  4.00 -5.00
v  9.00  4.00 -4.50
v  9.00  4.00 -4.00
v  9.00  4.00 -3.50
v  9.00  4.00 -3.00
v  9.00  4.00 -2.50
v  9.00  4.00 -2.00
v  9.00  4.00 -1.50
v  9.00  4.00 -1.00
v  9.00  4.00 -0.50
v  9.00  4.00  0.00
v  9.00  4.00  0.50
v  9.00  4.00  1.00
v  9.00  4.00  1.50
v  9.00  4.00  2.00
v  9.00  4.00  2.50
v  9.00  4.00  3.00
v  9.00  4.00  3.50
v  9.00  4.00  4.00
v  9.00  4.00  4.50
v  9.00  4.00  5.00
v  9.00  4.00  5.50
v  9.00  3.50 -5.50
v  9.00  3.50 -5.00
v  9.00  3.50 -4.50
v  9.00  3.50 -4.00
v  9.00  3.50 -3.50
v  9.00  3.50 -3.00
v  9.00  3.50 -2.50
v  9.00  3.50 -2.00
v  9.00  3.50 -1.50
v  9.00  3.50 -1.00
v  9.00  3.50 -0.50
v  9.00  3.50  0.00
v  9.00  3.50  0.50
v  9.00  3.50  1.00
v  9.00  3.50  1.50
v  9.00  3.50  2.00
v  9.00  3.50  2.50
v  9.00  3.50  3.00
v  9.00  3.50  3.50
v  9.00  3.50  4.00
v  9.00  3.50  4.50
v  9.00  3.50  5.00
v  9.00  3.50  5.50
v  9.00  3.00 -5.50
v  9.00  3.00 -5.00
v  9.00  3.00 -4.50
v  9.00  3.00 -4.00
v  9.00  3.00 -3.50
v  9.00  3.00 -3.00
v  9.00  3.00 -2.50
v  9.00  3.00 -2.00
v  9.00  3.00 -1.50
v  9.00  3.00 -1.00
v  9.00  3.00 -0.50
v  9.00  3.00  0.00
v  9.00  3.00  0.50
v  9.00  3.00  1.00
v  9.00  3.00  1.50
v  9.00  3.00  2.00
v  9.00  3.00  2.50
v  9.00  3.00  3.00
v  9.00  3.00  3.50
v  9.00  3.00  4.00
v  9.00  3.00  4.50
v  9.00  3.00  5.00
v  9.00  3.00  5.50
v  9.00  2.50 -5.50
v  9.00  2.50 -5.00
v  9.00  2.50 -4.50
v  9.00  2.50 -4.00
v  9.00  2.50 -3.50
v  9.00  2.50 -3.00
v  9.00  2.50 -2.50
v  9.00  2.50 -2.00
v  9.00  2.50 -1.50
v  9.00  2.50 -1.00
v  9.00  2.50 -0.50
v  9.00  2.50  0.00
v  9.00  2.50  0.50
v  9.00  2.50  1.00
v  9.00  2.50  1.50
v  9.00  2.50  2.00
v  9.00  2.50  2.50
v  9.00  2.50  3.00
v  9.00  2.50  3.50
v  9.00  2.50  4.00
v  9.00  2.50  4.50
v  9.00  2.50  5.00
v  9.00  2.50  5.50
v  9.00  2.00 -5.50
v  9.00  2.00 -5.00
v  9.00  2.00 -4.50
v  9.00  2.00 -4.00
v  9.00  2.00 -3.50
v  9.00  2.00 -3.00
v  9.00  2.00 -2.50
v  9.00  2.00 -2.00
v  9.00  2.00 -1.50
v  9.00  2.00 -1.00
v  9.00  2.00 -0.50
v  9.00  2.00  0.00
v  9.00  2.00  0.50
v  9.00  2.00  1.00
v  9.00  2.00  1.50
v  9.00  2.00  2.00
v  9.00  2.00  2.50
v  9.00  2.00  3.00
v  9.00  2.00  3.50
v  9.00  2.00  4.00
v  9.00  2.00  4.50
v  9.00  2.00  5.00
v  9.00  2.00  5.50
v  9.00  1.50 -5.50
v  9.00  1.50 -5.00
v  9.00  1.50 -4.50
v  9.00  1.50 -4.00
v  9.00  1.50 -3.50
v  9.00  1.50 -3.00
v  9.00  1.50 -2.50
v  9.00  1.50 -2.00
v  9.00  1.50 -1.50
v  9.00  1.50 -1.00
v  9.00  1.50 -0.50
v  9.00  1.50  0.00
v  9.00  1.50  0.50
v  9.00  1.50  1.00
v  9.00  1.50  1.50
v  9.00  1.50  2.00
v  9.00  1.50  2.50
v  9.00  1.50  3.00
v  9.00  1.50  3.50
v  9.00  1.50  4.00
v  9.00  1.50  4.50
v  9.00  1.50  5.00
v  9.00  1.50  5.50
v  9.00  1.00 -5.50
v  9.00  1.00 -5.00
v  9.00  1.00 -4.50
v  9.00  1.00 -4.00
v  9.00  1.00 -3.50
v  9.00  1.00 -3.00
v  9.00  1.00 -2.50
v  9.00  1.00 -2.00
v  9.00  1.00 -1.50
v  9.00  1.00 -1.00
v  9.00  1.00 -0.50
v  9.00  1.00  0.00
v  9.00  1.00  0.50
v  9.00  1.00  1.00
v  9.00  1.00  1.50
v  9.00  1.00  2.00
v  9.00  1.00  2.50
v  9.00  1.00  3.00
v  9.00  1.00  3.50
v  9.00  1.00  4.00
v  9.00  1.00  4.50
v  9.00  1.00  5.00
v  9.00  1.00  5.50
v  9.00  0.50 -5.50
v  9.00  0.50 -5.00
v  9.00  0.50 -4.50
v  9.00  0.50 -4.00
v  9.00  0.50 -3.50
v  9.00  0.50 -3.00
v  9.00  0.50 -2.50
v  9.00  0.50 -2.00
v  9.00  0.50 -1.50
v  9.00  0.50 -1.00
v  9.00  0.50 -0.50
v  9.00  0.50  0.00
v  9.00  0.50  0.50
v  9.00  0.50  1.00
v  9.00  0.50  1.50
v  9.00  0.50  2.00
v  9.00  0.50  2.50
v  9.00  0.50  3.00
v  9.00  0.50  3.50
v  9.00  0.50  4.00
v  9.00  0.50  4.50
v  9.00  0.50  5.00
v  9.00  0.50  5.50
v  9.00  0.00 -5.50
v  9.00  0.00 -5.00
v  9.00  0.00 -4.50
v  9.00  0.00 -4.00
v  9.00  0.00 -3.50
v  9.00  0.00 -3.00
v  9.00  0.00 -2.50
v  9.00  0.00 -2.00
v  9.00  0.00 -1.50
v  9.00  0.00 -1.00
v  9.00  0.00 -0.50
v  9.00  0.00  0.00
v  9.00  0.00  0.50
v  9.00  0.00  1.00
v  9.00  0.00  1.50
v  9.00  0.00  2.00
v  9.00  0.00  2.50
v  9.00  0.00  3.00
v  9.00  0.00  3.50
v  9.00  0.00  4.00
v  9.00  0.00  4.50
v  9.00  0.00  5.00
v  9.00  0.00  5.50
vt 0 0
vt 0 1
vt 1 0
vt 1 1
vn -1 0 0
f 1/2/1 24/1/1 2/4/1
f 2/2/1 25/1/1 3/4/1
f 3/2/1 26/1/1 4/4/1
f 4/2/1 27/1/1 5/4/1
f 5/2/1 28/1/1 6/4/1
f 6/2/1 29/1/1 7/4/1
f 7/2/1 30/1/1 8/4/1
f 8/2/1 31/1/1 9/4/1
f 9/2/1 32/1/1 10/4/1
f 10/2/1 33/1/1 11/4/1
f 11/2/1 34/1/1 12/4/1
f 12/2/1 35/1/1 13/4/1
f 13/2/1 36/1/1 14/4/1
f 14/2/1 37/1/1 15/4/1
f 15/2/1 38/1/1 16/4/1
f 16/2/1 39/1/1 17/4/1
f 17/2/1 40/1/1 18/4/1
f 18/2/1 41/1/1 19/4/1
f 19/2/1 42/1/1 20/4/1
f 20/2/1 43/1/1 21/4/1
f 21/2/1 44/1/1 22/4/1
f 22/2/1 45/1/1 23/4/1
f 24/2/1 47/1/1 25/4/1
f 25/2/1 48/1/1 26/4/1
f 26/2/1 49/1/1 27/4/1
f 27/2/1 50/1/1 28/4/1
f 28/2/1 51/1/1 29/4/1
f 29/2/1 52/1/1 30/4/1
f 30/2/1 53/1/1 31/4/1
f 31/2/1 54/1/1 32/4/1
f 32/2/1 55/1/1 33/4/1
f 33/2/1 56/1/1 34/4/1
f 34/2/1 57/1/1 35/4/1
f 35/2/1 58/1/1 36/4/1
f 36/2/1 59/1/1 37/4/1
f 37/2/1 60/1/1 38/4/1
f 38/2/1 61/1/1 39/4/1
f 39/2/1 62/1/1 40/4/1
f 40/2/1 63/1/1 41/4/1
f 41/2/1 64/1/1 42/4/1
f 42/2/1 65/1/1 43/4/1
f 43/2/1 66/1/1 44/4/1
f 44/2/1 67/1/1 45/4/1
f 45/2/1 68/1/1 46/4/1
f 47/2/1 70/1/1 48/4/1
f 48/2/1 71/1/1 49/4/1
f 49/2/1 72/1/1 50/4/1
f 50/2/1 73/1/1 51/4/1
f 51/2/1 74/1/1 52/4/1
f 52/2/1 75/1/1 53/4/1
f 53/2/1 76/1/1 54/4/1
f 54/2/1 77/1/1 55/4/1
f 55/2/1 78/1/1 56/4/1
f 56/2/1 79/1/1 57/4/1
f 57/2/1 80/1/1 58/4/1
f 58/2/1 81/1/1 59/4/1
f 59/2/1 82/1/1 60/4/1
f 60/2/1 83/1/1 61/4/1
f 61/2/1 84/1/1 62/4/1
f 62/2/1 85/1/1 63/4/1
f 63/2/1 86/1/1 64/4/1
f 64/2/1 87/1/1 65/4/1
f 65/2/1 88/1/1 66/4/1
f 66/2/1 89/1/1 67/4/1
f 67/2/1 90/1/1 68/4/1
f 68/2/1 91/1/1 69/4/1
f 70/2/1 93/1/1 71/4/1
f 71/2/1 94/1/1 72/4/1
f 72/2/1 95/1/1 73/4/1
f 73/2/1 96/1/1 74/4/1
f 74/2/1 97/1/1 75/4/1
f 75/2/1 98/1/1 76/4/1
f 76/2/1 99/1/1 77/4/1
f 77/2/1 100/1/1 78/4/1
f 78/2/1 101/1/1 79/4/1
f 79/2/1 102/1/1 80/4/1
f 80/2/1 103/1/1 81/4/1
f 81/2/1 104/1/1 82/4/1
f 82/2/1 105/1/1 83/4/1
f 83/2/1 106/1/1 84/4/1
f 84/2/1 107/1/1 85/4/1
f 85/2/1 108/1/1 86/4/1
f 86/2/1 109/1/1 87/4/1
f 87/2/1 110/1/1 88/4/1
f 88/2/1 111/1/1 89/4/1
f 89/2/1 112/1/1 90/4/1
f 90/2/1 113/1/1 91/4/1
f 91/2/1 114/1/1 92/4/1
f 93/2/1 116/1/1 94/4/1
f 94/2/1 117/1/1 95/4/1
f 95/2/1 118/1/1 96/4/1
f 96/2/1 119/1/1 97/4/1
f 97/2/1 120/1/1 98/4/1
f 98/2/1 121/1/1 99/4/1
f 99/2/1 122/1/1 100/4/1
f 100/2/1 123/1/1 101/4/1
f 101/2/1 124/1/1 102/4/1
f 102/2/1 125/1/1 103/4/1
f 103/2/1 126/1/1 104/4/1
f 104/2/1 127/1/1 105/4/1
f 105/2/1 128/1/1 106/4/1
f 106/2/1 129/1/1 107/4/1
f 107/2/1 130/1/1 108/4/1
f 108/2/1 131/1/1 109/4/1
f 109/2/1 132/1/1 110/4/1
f 110/2/1 133/1/1 111/4/1
f 111/2/1 134/1/1 112/4/1
f 112/2/1 135/1/1 113/4/1
f 113/2/1 136/1/1 114/4/1
f 114/2/1 137/1/1 115/4/1
f 116/2/1 139/1/1 117/4/1
f 117/2/1 140/1/1 118/4/1
f 118/2/1 141/1/1 119/4/1
f 119/2/1 142/1/1 120/4/1
f 120/2/1 143/1/1 121/4/1
f 121/2/1 144/1/1 122/4/1
f 122/2/1 145/1/1 123/4/1
f 123/2/1 146/1/1 124/4/1
f 124/2/1 147/1/1 125/4/1
f 125/2/1 148/1/1 126/4/1
f 126/2/1 149/1/1 127/4/1
f 127/2/1 150/1/1 128/4/1
f 128/2/1 151/1/1 129/4/1
f 129/2/1 152/1/1 130/4/1
f 130/2/1 153/1/1 131/4/1
f 131/2/1 154/1/1 132/4/1
f 132/2/1 155/1/1 133/4/1
f 133/2/1 156/1/1 134/4/1
f 134/2/1 157/1/1 135/4/1
f 135/2/1 158/1/1 136/4/1
f 136/2/1 159/1/1 137/4/1
f 137/2/1 160/1/1 138/4/1
f 139/2/1 162/1/1 140/4/1
f 140/2/1 163/1/1 141/4/1
f 141/2/1 164/1/1 142/4/1
f 142/2/1 165/1/1 143/4/1
f 143/2/1 166/1/1 144/4/1
f 144/2/1 167/1/1 145/4/1
f 145/2/1 168/1/1 146/4/1
f 146/2/1 169/1/1 147/4/1
f 147/2/1 170/1/1 148/4/1
f 148/2/1 171/1/1 149/4/1
f 149/2/1 172/1/1 150/4/1
f 150/2/1 173/1/1 151/4/1
f 151/2/1 174/1/1 152/4/1
f 152/2/1 175/1/1 153/4/1
f 153/2/1 176/1/1 154/4/1
f 154/2/1 177/1/1 155/4/1
f 155/2/1 178/1/1 156/4/1
f 156/2/1 179/1/1 157/4/1
f 157/2/1 180/1/1 158/4/1
f 158/2/1 181/1/1 159/4/1
f 159/2/1 182/1/1 160/4/1
f 160/2/1 183/1/1 161/4/1
f 162/2/1 185/1/1 163/4/1
f 163/2/1 186/1/1 164/4/1
f 164/2/1 187/1/1 165/4/1
f 165/2/1 188/1/1 166/4/1
f 166/2/1 189/1/1 167/4/1
f 167/2/1 190/1/1 168/4/1
f 168/2/1 191/1/1 169/4/1
f 169/2/1 192/1/1 170/4/1
f 170/2/1 193/1/1 171/4/1
f 171/2/1 194/1/1 172/4/1
f 172/2/1 195/1/1 173/4/1
f 173/2/1 196/1/1 174/4/1
f 174/2/1 197/1/1 175/4/1
f 175/2/1 198/1/1 176/4/1
f 176/2/1 199/1/1 177/4/1
f 177/2/1 200/1/1 178/4/1
f 178/2/1 201/1/1 179/4/1
f 179/2/1 202/1/1 180/4/1
f 180/2/1 203/1/1 181/4/1
f 181/2/1 204/1/1 182/4/1
f 182/2/1 205/1/1 183/4/1
f 183/2/1 206/1/1 184/4/1
f 185/2/1 208/1/1 186/4/1
f 186/2/1 209/1/1 187/4/1
f 187/2/1 210/1/1 188/4/1
f 188/2/1 211/1/1 189/4/1
f 189/2/1 212/1/1 190/4/1
f 190/2/1 213/1/1 191/4/1
f 191/2/1 214/1/1 192/4/1
f 192/2/1 215/1/1 193/4/1
f 193/2/1 216/1/1 194/4/1
f 194/2/1 217/1/1 195/4/1
f 195/2/1 218/1/1 196/4/1
f 196/2/1 219/1/1 197/4/1
f 197/2/1 220/1/1 198/4/1
f 198/2/1 221/1/1 199/4/1
f 199/2/1 222/1/1 200/4/1
f 200/2/1 223/1/1 201/4/1
f 201/2/1 224/1/1 202/4/1
f 202/2/1 225/1/1 203/4/1
f 203/2/1 226/1/1 204/4/1
f 204/2/1 227/1/1 205/4/1
f 205/2/1 228/1/1 206/4/1
f 206/2/1 229/1/1 207/4/1
f 208/2/1 231/1/1 209/4/1
f 209/2/1 232/1/1 210/4/1
f 210/2/1 233/1/1 211/4/1
f 211/2/1 234/1/1 212/4/1
f 212/2/1 235/1/1 213/4/1
f 213/2/1 236/1/1 214/4/1
f 214/2/1 237/1/1 215/4/1
f 215/2/1 238/1/1 216/4/1
f 216/2/1 239/1/1 217/4/1
f 217/2/1 240/1/1 218/4/1
f 218/2/1 241/1/1 219/4/1
f 219/2/1 242/1/1 220/4/1
f 220/2/1 243/1/1 221/4/1
f 221/2/1 244/1/1 222/4/1
f 222/2/1 245/1/1 223/4/1
f 223/2/1 246/1/1 224/4/1
f 224/2/1 247/1/1 225/4/1
f 225/2/1 248/1/1 226/4/1
f 226/2/1 249/1/1 227/4/1
f 227/2/1 250/1/1 228/4/1
f 228/2/1 251/1/1 229/4/1
f 229/2/1 252/1/1 230/4/1
f 2/4/1 24/1/1 25/3/1
f 3/4/1 25/1/1 26/3/1
f 4/4/1 26/1/1 27/3/1
f 5/4/1 27/1/1 28/3/1
f 6/4/1 28/1/1 29/3/1
f 7/4/1 29/1/1 30/3/1
f 8/4/1 30/1/1 31/3/1
f 9/4/1 31/1/1 32/3/1
f 10/4/1 32/1/1 33/3/1
f 11/4/1 33/1/1 34/3/1
f 12/4/1 34/1/1 35/3/1
f 13/4/1 35/1/1 36/3/1
f 14/4/1 36/1/1 37/3/1
f 15/4/1 37/1/1 38/3/1
f 16/4/1 38/1/1 39/3/1
f 17/4/1 39/1/1 40/3/1
f 18/4/1 40/1/1 41/3/1
f 19/4/1 41/1/1 42/3/1
f 20/4/1 42/1/1 43/3/1
f 21/4/1 43/1/1 44/3/1
f 22/4/1 44/1/1 45/3/1
f 23/4/1 45/1/1 46/3/1
f 25/4/1 47/1/1 48/3/1
f 26/4/1 48/1/1 49/3/1
f 27/4/1 49/1/1 50/3/1
f 28/4/1 50/1/1 51/3/1
f 29/4/1 51/1/1 52/3/1
f 30/4/1 52/1/1 53/3/1
f 31/4/1 53/1/1 54/3/1
f 32/4/1 54/1/1 55/3/1
f 33/4/1 55/1/1 56/3/1
f 34/4/1 56/1/1 57/3/1
f 35/4/1 57/1/1 58/3/1
f 36/4/1 58/1/1 59/3/1
f 37/4/1 59/1/1 60/3/1
f 38/4/1 60/1/1 61/3/1
f 39/4/1 61/1/1 62/3/1
f 40/4/1 62/1/1 63/3/1
f 41/4/1 63/1/1 64/3/1
f 42/4/1 64/1/1 65/3/1
f 43/4/1 65/1/1 66/3/1
f 44/4/1 66/1/1 67/3/1
f 45/4/1 67/1/1 68/3/1
f 46/4/1 68/1/1 69/3/1
f 48/4/1 70/1/1 71/3/1
f 49/4/1 71/1/1 72/3/1
f 50/4/1 72/1/1 73/3/1
f 51/4/1 73/1/1 74/3/1
f 52/4/1 74/1/1 75/3/1
f 53/4/1 75/1/1 76/3/1
f 54/4/1 76/1/1 77/3/1
f 55/4/1 77/1/1 78/3/1
f 56/4/1 78/1/1 79/3/1
f 57/4/1 79/1/1 80/3/1
f 58/4/1 80/1/1 81/3/1
f 59/4/1 81/1/1 82/3/1
f 60/4/1 82/1/1 83/3/1
f 61/4/1 83/1/1 84/3/1
f 62/4/1 84/1/1 85/3/1
f 63/4/1 85/1/1 86/3/1
f 64/4/1 86/1/1 87/3/1
f 65/4/1 87/1/1 88/3/1
f 66/4/1 88/1/1 89/3/1
f 67/4/1 89/1/1 90/3/1
f 68/4/1 90/1/1 91/3/1
f 69/4/1 91/1/1 92/3/1
f 71/4/1 93/1/1 94/3/1
f 72/4/1 94/1/1 95/3/1
f 73/4/1 95/1/1 96/3/1
f 74/4/1 96/1/1 97/3/1
f 75/4/1 97/1/1 98/3/1
f 76/4/1 98/1/1 99/3/1
f 77/4/1 99/1/1 100/3/1
f 78/4/1 100/1/1 101/3/1
f 79/4/1 101/1/1 102/3/1
f 80/4/1 102/1/1 103/3/1
f 81/4/1 103/1/1 104/3/1
f 82/4/1 104/1/1 105/3/1
f 83/4/1 105/1/1 106/3/1
f 84/4/1 106/1/1 107/3/1
f 85/4/1 107/1/1 108/3/1
f 86/4/1 108/1/1 109/3/1
f 87/4/1 109/1/1 110/3/1
f 88/4/1 110/1/1 111/3/1
f 89/4/1 111/1/1 112/3/1
f 90/4/1 112/1/1 113/3/1
f 91/4/1 113/1/1 114/3/1
f 92/4/1 114/1/1 115/3/1
f 94/4/1 116/1/1 117/3/1
f 95/4/1 117/1/1 118/3/1
f 96/4/1 118/1/1 119/3/1
f 97/4/1 119/1/1 120/3/1
f 98/4/1 120/1/1 121/3/1
f 99/4/1 121/1/1 122/3/1
f 100/4/1 122/1/1 123/3/1
f 101/4/1 123/1/1 124/3/1
f 102/4/1 124/1/1 125/3/1
f 103/4/1 125/1/1 126/3/1
f 104/4/1 126/1/1 127/3/1
f 105/4/1 127/1/1 128/3/1
f 106/4/1 128/1/1 129/3/1
f 107/4/1 129/1/1 130/3/1
f 108/4/1 130/1/1 131/3/1
f 109/4/1 131/1/1 132/3/1
f 110/4/1 132/1/1 133/3/1
f 111/4/1 133/1/1 134/3/1
f 112/4/1 134/1/1 135/3/1
f 113/4/1 135/1/1 136/3/1
f 114/4/1 136/1/1 137/3/1
f 115/4/1 137/1/1 138/3/1
f 117/4/1 139/1/1 140/3/1
f 118/4/1 140/1/1 141/3/1
f 119/4/1 141/1/1 142/3/1
f 120/4/1 142/1/1 143/3/1
f 121/4/1 143/1/1 144/3/1
f 122/4/1 144/1/1 145/3/1
f 123/4/1 145/1/1 146/3/1
f 124/4/1 146/1/1 147/3/1
f 125/4/1 147/1/1 148/3/1
f 126/4/1 148/1/1 149/3/1
f 127/4/1 149/1/1 150/3/1
f 128/4/1 150/1/1 151/3/1
f 129/4/1 151/1/1 152/3/1
f 130/4/1 152/1/1 153/3/1
f 131/4/1 153/1/1 154/3/1
f 132/4/1 154/1/1 155/3/1
f 133/4/1 155/1/1 156/3/1
f 134/4/1 156/1/1 157/3/1
f 135/4/1 157/1/1 158/3/1
f 136/4/1 158/1/1 159/3/1
f 137/4/1 159/1/1 160/3/1
f 138/4/1 160/1/1 161/3/1
f 140/4/1 162/1/1 163/3/1
f 141/4/1 163/1/1 164/3/1
f 142/4/1 164/1/1 165/3/1
f 143/4/1 165/1/1 166/3/1
f 144/4/1 166/1/1 167/3/1
f 145/4/1 167/1/1 168/3/1
f 146/4/1 168/1/1 169/3/1
f 147/4/1 169/1/1 170/3/1
f 148/4/1 170/1/1 171/3/1
f 149/4/1 171/1/1 172/3/1
f 150/4/1 172/1/1 173/3/1
f 151/4/1 173/1/1 174/3/1
f 152/4/1 174/1/1 175/3/1
f 153/4/1 175/1/1 176/3/1
f 154/4/1 176/1/1 177/3/1
f 155/4/1 177/1/1 178/3/1
f 156/4/1 178/1/1 179/3/1
f 157/4/1 179/1/1 180/3/1
f 158/4/1 180/1/1 181/3/1
f 159/4/1 181/1/1 182/3/1
f 160/4/1 182/1/1 183/3/1
f 161/4/1 183/1/1 184/3/1
f 163/4/1 185/1/1 186/3/1
f 164/4/1 186/1/1 187/3/1
f 165/4/1 187/1/1 188/3/1
f 166/4/1 188/1/1 189/3/1
f 167/4/1 189/1/1 190/3/1
f 168/4/1 190/1/1 191/3/1
f 169/4/1 191/1/1 192/3/1
f 170/4/1 192/1/1 193/3/1
f 171/4/1 193/1/1 194/3/1
f 172/4/1 194/1/1 195/3/1
f 173/4/1 195/1/1 196/3/1
f 174/4/1 196/1/1 197/3/1
f 175/4/1 197/1/1 198/3/1
f 176/4/1 198/1/1 199/3/1
f 177/4/1 199/1/1 200/3/1
f 178/4/1 200/1/1 201/3/1
f 179/4/1 201/1/1 202/3/1
f 180/4/1 202/1/1 203/3/1
f 181/4/1 203/1/1 204/3/1
f 182/4/1 204/1/1 205/3/1
f 183/4/1 205/1/1 206/3/1
f 184/4/1 206/1/1 207/3/1
f 186/4/1 208/1/1 209/3/1
f 187/4/1 209/1/1 210/3/1
f 188/4/1 210/1/1 211/3/1
f 189/4/1 211/1/1 212/3/1
f 190/4/1 212/1/1 213/3/1
f 191/4/1 213/1/1 214/3/1
f 192/4/1 214/1/1 215/3/1
f 193/4/1 215/1/1 216/3/1
f 194/4/1 216/1/1 217/3/1
f 195/4/1 217/1/1 218/3/1
f 196/4/1 218/1/1 219/3/1
f 197/4/1 219/1/1 220/3/1
f 198/4/1 220/1/1 221/3/1
f 199/4/1 221/1/1 222/3/1
f 200/4/1 222/1/1 223/3/1
f 201/4/1 223/1/1 224/3/1
f 202/4/1 224/1/1 225/3/1
f 203/4/1 225/1/1 226/3/1
f 204/4/1 226/1/1 227/3/1
f 205/4/1 227/1/1 228/3/1
f 206/4/1 228/1/1 229/3/1
f 207/4/1 229/1/1 230/3/1
f 209/4/1 231/1/1 232/3/1
f 210/4/1 232/1/1 233/3/1
f 211/4/1 233/1/1 234/3/1
f 212/4/1 234/1/1 235/3/1
f 213/4/1 235/1/1 236/3/1
f 214/4/1 236/1/1 237/3/1
f 215/4/1 237/1/1 238/3/1
f 216/4/1 238/1/1 239/3/1
f 217/4/1 239/1/1 240/3/1
f 218/4/1 240/1/1 241/3/1
f 219/4/1 241/1/1 242/3/1
f 220/4/1 242/1/1 243/3/1
f 221/4/1 243/1/1 244/3/1
f 222/4/1 244/1/1 245/3/1
f 223/4/1 245/1/1 246/3/1
f 224/4/1 246/1/1 247/3/1
f 225/4/1 247/1/1 248/3/1
f 226/4/1 248/1/1 249/3/1
f 227/4/1 249/1/1 250/3/1
f 228/4/1 250/1/1 251/3/1
f 229/4/1 251/1/1 252/3/1
f 230/4/1 252/1/1 253/3/1
